<svg width="22" height="21" viewBox="0 0 22 21" fill="none" xmlns="http://www.w3.org/2000/svg">
<path d="M11.4354 14.4879V15.544C11.4354 15.7146 11.3675 15.8781 11.247 15.9987C11.1263 16.1193 10.9627 16.1871 10.7921 16.1871C10.6215 16.1871 10.4579 16.1193 10.3374 15.9987C10.2167 15.8781 10.149 15.7146 10.149 15.544V14.459C9.72326 14.3888 9.31603 14.2336 8.95151 14.0027C8.58706 13.7719 8.27275 13.47 8.02735 13.1151C7.92895 13.0076 7.87421 12.8671 7.87378 12.7214C7.87368 12.6383 7.89045 12.556 7.92311 12.4795C7.95577 12.4031 8.00366 12.334 8.06379 12.2766C8.12394 12.2191 8.19507 12.1744 8.27298 12.1453C8.35087 12.1161 8.43388 12.1032 8.51696 12.1071C8.59941 12.1066 8.68089 12.1245 8.75558 12.1593C8.83036 12.1942 8.89641 12.2452 8.94902 12.3087C9.25603 12.7098 9.67286 13.0132 10.149 13.1822V10.744C8.87222 10.2352 8.22897 9.49592 8.22897 8.52632C8.24821 8.00725 8.45222 7.51211 8.80425 7.13015C9.15628 6.74821 9.63321 6.50462 10.149 6.4432V5.3775C10.149 5.20692 10.2167 5.0432 10.3374 4.92257C10.4579 4.80195 10.6215 4.73438 10.7921 4.73438C10.9627 4.73438 11.1263 4.80195 11.247 4.92257C11.3675 5.0432 11.4354 5.20692 11.4354 5.3775V6.43359C11.7942 6.48888 12.138 6.61584 12.4465 6.80719C12.7549 6.99854 13.0217 7.25026 13.2306 7.54711C13.3153 7.65817 13.3653 7.79164 13.3745 7.93102C13.3771 8.01329 13.3632 8.09537 13.3334 8.17217C13.3037 8.24897 13.2588 8.31886 13.2015 8.378C13.1442 8.43704 13.0756 8.48417 12.9998 8.51624C12.924 8.5483 12.8425 8.56481 12.7601 8.56472C12.6743 8.56366 12.5896 8.54427 12.5119 8.50779C12.434 8.47141 12.3649 8.4188 12.309 8.35361C12.0801 8.06763 11.7783 7.84856 11.4354 7.71984V9.87982L11.6754 9.97592C12.8946 10.4463 13.653 11.1374 13.653 12.2414C13.6365 12.827 13.3983 13.3847 12.9868 13.8016C12.5752 14.2185 12.0207 14.4638 11.4354 14.4879ZM10.149 9.32321V7.76789C9.99407 7.82408 9.86063 7.92757 9.76761 8.06369C9.67468 8.19973 9.62678 8.36158 9.63062 8.52632C9.63849 8.68952 9.69091 8.84744 9.78239 8.98289C9.87379 9.11835 10.0006 9.22606 10.149 9.29441V9.32321ZM12.261 12.2702C12.261 11.7998 11.9346 11.5214 11.4354 11.3102V13.2302C11.6711 13.1971 11.886 13.0776 12.0386 12.8948C12.1911 12.7121 12.2704 12.4792 12.261 12.2414V12.2702Z" fill="#9F9F9F"/>
<path d="M11.1568 2.00781H4.84C3.82156 2.00781 2.84491 2.41244 2.12476 3.13258C1.40463 3.85272 1 4.82938 1 5.84781V15.4478C1 16.4662 1.40463 17.4429 2.12476 18.163C2.84491 18.8832 3.82156 19.2878 4.84 19.2878H16.36C17.3785 19.2878 18.3552 18.8832 19.0753 18.163C19.7955 17.4429 20.2 16.4662 20.2 15.4478V9.62055" stroke="#9F9F9F" stroke-width="2" stroke-linecap="round" stroke-linejoin="round"/>
<path d="M20.1998 1L14.7662 6.4336" stroke="#9F9F9F" stroke-width="2" stroke-linecap="round" stroke-linejoin="round"/>
<path d="M19.115 6.43327H14.7662V2.08447" stroke="#9F9F9F" stroke-width="2" stroke-linecap="round" stroke-linejoin="round"/>
</svg>
