<svg width="24" height="22" viewBox="0 0 24 22" fill="none" xmlns="http://www.w3.org/2000/svg">
<path d="M23.2 0H0.800016C0.358172 0 0 0.358219 0 0.800016V20.96C0 21.4018 0.358172 21.76 0.800016 21.76H23.2C23.6418 21.76 24 21.4019 24 20.96V0.800016C24 0.358219 23.6418 0 23.2 0ZM6.50667 20.16H1.59998V5.86669H6.50667V20.16ZM22.4 20.16H8.10666V5.86669H22.4V20.16H22.4ZM22.4 4.2667H7.30716H1.59998V1.60003H22.4V4.2667H22.4Z" fill="#9F9F9F"/>
<path d="M3.04055 3.46561C3.3351 3.46561 3.57389 3.22683 3.57389 2.93227C3.57389 2.63771 3.3351 2.39893 3.04055 2.39893C2.74599 2.39893 2.5072 2.63771 2.5072 2.93227C2.5072 3.22683 2.74599 3.46561 3.04055 3.46561Z" fill="#9F9F9F"/>
<path d="M5.17385 3.46561C5.4684 3.46561 5.70719 3.22683 5.70719 2.93227C5.70719 2.63771 5.4684 2.39893 5.17385 2.39893C4.87929 2.39893 4.6405 2.63771 4.6405 2.93227C4.6405 3.22683 4.87929 3.46561 5.17385 3.46561Z" fill="#9F9F9F"/>
<path d="M7.30715 3.46561C7.6017 3.46561 7.84049 3.22683 7.84049 2.93227C7.84049 2.63771 7.6017 2.39893 7.30715 2.39893C7.01259 2.39893 6.7738 2.63771 6.7738 2.93227C6.7738 3.22683 7.01259 3.46561 7.30715 3.46561Z" fill="#9F9F9F"/>
<path d="M4.99528 8.31982H3.13279C2.72212 8.31982 2.36184 8.62067 2.31679 9.02886C2.26359 9.51143 2.63995 9.91986 3.11179 9.91986H4.97423C5.3849 9.91986 5.74518 9.61901 5.79023 9.21082C5.84348 8.72825 5.46703 8.31982 4.99528 8.31982Z" fill="#9F9F9F"/>
<path d="M4.99528 12.2134H3.13279C2.72212 12.2134 2.36184 12.5142 2.31679 12.9224C2.26359 13.405 2.63995 13.8134 3.11179 13.8134H4.97423C5.3849 13.8134 5.74518 13.5126 5.79023 13.1044C5.84348 12.6218 5.46703 12.2134 4.99528 12.2134Z" fill="#9F9F9F"/>
<path d="M4.99528 16.1064H3.13279C2.72212 16.1064 2.36184 16.4073 2.31679 16.8155C2.26359 17.2981 2.63995 17.7065 3.11179 17.7065H4.97423C5.3849 17.7065 5.74518 17.4056 5.79023 16.9974C5.84348 16.5149 5.46703 16.1064 4.99528 16.1064Z" fill="#9F9F9F"/>
<path d="M17.2433 12.9941C19.1958 11.1878 17.9155 7.9082 15.2533 7.9082C12.5899 7.9082 11.3113 11.1882 13.2633 12.9941C12.6837 13.5303 12.3199 14.2968 12.3199 15.1467V17.2801C12.3199 17.7219 12.6781 18.0801 13.12 18.0801H17.3866C17.8284 18.0801 18.1866 17.7219 18.1866 17.2801V15.1467C18.1866 14.2967 17.8229 13.5304 17.2433 12.9941ZM15.2535 9.52708C17.0156 9.52708 17.0156 12.1937 15.2535 12.1937C13.4915 12.1937 13.4914 9.52708 15.2535 9.52708ZM16.5866 16.4801H13.92V15.1743C13.92 14.494 14.4727 13.8682 15.1511 13.8173C15.9322 13.7587 16.5866 14.3778 16.5866 15.1468V16.4801Z" fill="#9F9F9F"/>
</svg>
