<svg width="23" height="24" viewBox="0 0 23 24" fill="none" xmlns="http://www.w3.org/2000/svg">
<path d="M6.51927 10.1112C6.29777 10.2968 6.04035 10.3687 5.67517 10.4046V8.42904C6.11219 8.57271 6.40553 8.72238 6.59111 8.86605C6.73479 9.00973 6.84853 9.23123 6.84853 9.48865C6.81267 9.74607 6.70491 9.96159 6.51927 10.1112ZM4.94487 4.94487C4.61561 4.98079 4.35819 5.08855 4.17261 5.23821C3.98703 5.4238 3.87927 5.63931 3.87927 5.86081C3.87927 6.11823 3.95111 6.29783 4.10077 6.44749C4.24445 6.59117 4.53779 6.74083 4.94487 6.88451V4.94487ZM22.1621 9.12347V21.2881C22.1621 22.7907 20.9529 24.0001 19.4502 24.0001H2.7119C1.20928 24.0001 0 22.7907 0 21.2881V2.7119C0 1.20928 1.20928 0 2.7119 0H13.1883C14.2479 0 14.7627 0.29334 15.4212 0.987778L21.1384 6.77675C21.9047 7.50711 22.1621 7.98603 22.1621 9.12347ZM10.1112 6.41157H14.1401C14.619 6.41157 14.9843 6.0464 14.9843 5.60339V4.98079C14.9843 4.54378 14.619 4.17261 14.1401 4.17261H10.1112V6.41157ZM4.94487 8.24345V10.4046C4.28636 10.2968 3.66376 10.0035 3.04116 9.45273L2.23298 10.4046C3.04116 11.099 3.9571 11.5061 4.94487 11.6139V12.4161H5.63931V11.6079C6.41157 11.572 6.99227 11.3505 7.47119 10.9494C7.90821 10.5483 8.16563 9.99751 8.16563 9.37491C8.16563 8.71639 7.98004 8.23747 7.57895 7.90821C7.17785 7.57895 6.55525 7.28561 5.71115 7.10003H5.67523V5.01073C6.26191 5.08256 6.77675 5.33999 7.24969 5.66924L7.98004 4.64555C7.24969 4.16663 6.47743 3.87329 5.66924 3.83737V3.21477H4.97481V3.76553C4.28037 3.80145 3.69369 4.02295 3.25069 4.42405C2.81367 4.82514 2.55625 5.3759 2.55625 5.9985C2.55625 6.6211 2.77775 7.10003 3.14293 7.4652C3.51409 7.76453 4.10077 8.05787 4.94487 8.24345ZM20.0009 20.1147C20.0009 19.6777 19.6358 19.3066 19.1568 19.3066H2.92735C2.44843 19.3066 2.11917 19.6717 2.11917 20.1147V20.7373C2.11917 21.1743 2.48435 21.5455 2.92735 21.5455H19.1568C19.5939 21.5455 20.0009 21.1803 20.0009 20.7373V20.1147ZM20.0009 15.0561C20.0009 14.619 19.6358 14.2479 19.1568 14.2479H2.92735C2.44843 14.2479 2.11917 14.6131 2.11917 15.0561V15.6787C2.11917 16.1157 2.48435 16.4869 2.92735 16.4869H19.1568C19.5939 16.4869 20.0009 16.1217 20.0009 15.6787V15.0561ZM20.0009 9.99751C20.0009 9.56049 19.6358 9.18932 19.1568 9.18932H10.1112V11.4223H19.1628C19.5999 11.4223 20.0069 11.0571 20.0069 10.6141V9.99751H20.0009Z" fill="#9F9F9F"/>
</svg>
